<svg width="329" height="227" viewBox="0 0 329 227" fill="none" xmlns="http://www.w3.org/2000/svg">
<path d="M125.936 165.408C120.389 165.408 115.653 164.597 111.728 162.976C107.888 161.269 104.219 158.453 100.72 154.528L106.224 148.768C108.869 152.011 111.685 154.357 114.672 155.808C117.744 157.259 121.413 157.984 125.68 157.984C131.995 157.984 136.859 156.405 140.272 153.248C143.685 150.005 145.392 145.397 145.392 139.424V74.4H154.608V139.68C154.608 147.957 152.133 154.315 147.184 158.752C142.235 163.189 135.152 165.408 125.936 165.408ZM176.046 158.496C179.715 158.496 182.958 157.941 185.774 156.832C188.59 155.723 191.193 153.931 193.582 151.456L198.958 156.448C196.227 159.52 192.985 161.781 189.23 163.232C185.475 164.683 180.91 165.408 175.534 165.408C167.342 165.408 160.942 163.488 156.334 159.648C151.811 155.723 149.55 150.261 149.55 143.264V123.808C149.55 117.237 151.769 112.075 156.206 108.32C160.729 104.48 166.915 102.56 174.766 102.56C182.787 102.56 188.931 104.565 193.198 108.576C197.55 112.587 199.726 118.261 199.726 125.6C199.726 130.293 198.83 133.536 197.038 135.328C195.331 137.035 192.089 137.888 187.31 137.888H158.126V143.264C158.126 148.384 159.577 152.224 162.478 154.784C165.465 157.259 169.987 158.496 176.046 158.496ZM174.638 109.344C169.518 109.344 165.465 110.709 162.478 113.44C159.577 116.085 158.126 119.712 158.126 124.32V131.616H183.726C186.627 131.616 188.59 131.147 189.614 130.208C190.638 129.184 191.15 127.307 191.15 124.576C191.15 119.797 189.699 116.085 186.798 113.44C183.897 110.709 179.843 109.344 174.638 109.344ZM214.267 165.408C209.232 165.408 204.923 164.597 201.339 162.976C197.84 161.355 194.64 158.709 191.739 155.04L197.243 150.304C199.888 153.291 202.491 155.424 205.051 156.704C207.611 157.899 210.683 158.496 214.267 158.496C219.387 158.496 223.27 157.6 225.915 155.808C228.56 154.016 229.883 151.413 229.883 148C229.883 145.867 229.371 144.16 228.347 142.88C227.323 141.6 225.531 140.491 222.971 139.552C220.411 138.613 216.528 137.675 211.323 136.736C199.376 134.603 193.403 128.885 193.403 119.584C193.403 114.208 195.323 110.027 199.163 107.04C203.088 103.968 208.464 102.432 215.291 102.432C220.155 102.432 224.379 103.285 227.963 104.992C231.632 106.613 234.406 109.003 236.283 112.16L230.779 116.768C228.816 114.208 226.555 112.331 223.995 111.136C221.52 109.941 218.619 109.344 215.291 109.344C211.024 109.344 207.654 110.24 205.179 112.032C202.79 113.824 201.595 116.299 201.595 119.456C201.595 122.272 202.576 124.448 204.539 125.984C206.587 127.52 210.128 128.8 215.163 129.824C221.051 131.104 225.616 132.512 228.859 134.048C232.187 135.499 234.534 137.333 235.899 139.552C237.35 141.771 238.075 144.587 238.075 148C238.075 153.717 236.027 158.069 231.931 161.056C227.92 163.957 222.032 165.408 214.267 165.408ZM256.172 165.408C247.809 165.408 241.367 163.488 236.844 159.648C232.321 155.808 230.06 150.261 230.06 143.008V124.832C230.06 117.749 232.364 112.245 236.972 108.32C241.58 104.395 248.023 102.432 256.3 102.432C261.335 102.432 265.687 103.243 269.356 104.864C273.025 106.485 276.183 108.96 278.828 112.288L272.94 117.28C270.551 114.379 268.076 112.331 265.516 111.136C262.956 109.941 259.884 109.344 256.3 109.344C250.753 109.344 246.401 110.709 243.244 113.44C240.172 116.171 238.636 119.968 238.636 124.832V143.008C238.636 147.957 240.129 151.797 243.116 154.528C246.188 157.173 250.54 158.496 256.172 158.496C260.012 158.496 263.34 157.856 266.156 156.576C268.972 155.296 271.361 153.333 273.324 150.688L279.212 155.68C276.737 159.008 273.623 161.483 269.868 163.104C266.113 164.64 261.548 165.408 256.172 165.408ZM295.022 165.408C287.001 165.408 280.729 163.403 276.206 159.392C271.769 155.296 269.55 149.579 269.55 142.24V125.6C269.55 118.261 271.769 112.587 276.206 108.576C280.729 104.48 287.001 102.432 295.022 102.432C303.043 102.432 309.273 104.48 313.71 108.576C318.233 112.587 320.494 118.261 320.494 125.6V142.24C320.494 149.579 318.233 155.296 313.71 159.392C309.273 163.403 303.043 165.408 295.022 165.408ZM295.022 158.496C300.398 158.496 304.537 157.088 307.438 154.272C310.425 151.456 311.918 147.445 311.918 142.24V125.6C311.918 120.395 310.425 116.384 307.438 113.568C304.537 110.752 300.398 109.344 295.022 109.344C289.646 109.344 285.465 110.752 282.478 113.568C279.577 116.384 278.126 120.395 278.126 125.6V142.24C278.126 147.445 279.577 151.456 282.478 154.272C285.465 157.088 289.646 158.496 295.022 158.496Z" fill="black"/>
<rect y="172.427" width="328" height="8.74667" fill="#008CFF"/>
<rect x="87.4667" y="185.547" width="240.533" height="8.74667" fill="#008CFF"/>
<rect x="209.92" y="198.667" width="118.08" height="8.74667" fill="#008CFF"/>
</svg>
